<?xml version="1.0" standalone="no"?><!DOCTYPE svg PUBLIC "-//W3C//DTD SVG 1.1//EN" "http://www.w3.org/Graphics/SVG/1.1/DTD/svg11.dtd"><svg t="1729427498916" class="icon" viewBox="0 0 1024 1024" version="1.1" xmlns="http://www.w3.org/2000/svg" p-id="2531" xmlns:xlink="http://www.w3.org/1999/xlink" width="200" height="200"><path d="M209.8 496.7c17.1 0 31.1-13.9 31.1-31.1 0-17.1-13.9-31-31.1-31s-31 13.9-31 31c-0.1 17.2 13.8 31.1 31 31.1zM345.1 750.2h-66c-37.3 0-45.9-8.6-45.9-45.9V534l-0.2-2.2h-0.2c-1.6-12.7-12.2-22.3-25.1-22.3-12.9 0-23.5 9.6-25.1 22.3h-0.4v172.4c0 66 30.8 96.8 96.8 96.8h66c14 0 25.4-11.4 25.4-25.4 0.1-14.1-11.3-25.4-25.3-25.4z" fill="#6B400D" p-id="2532"></path><path d="M959.3 251.8c0-71.9-58.5-130.4-130.4-130.4H194.7c-71.9 0-130.4 58.5-130.4 130.4v523.3c0 71.9 58.5 130.4 130.4 130.4h634.2c71.9 0 130.4-58.5 130.4-130.4V251.8z m-50.6 523.3c0 44-35.8 79.8-79.8 79.8H194.7c-44 0-79.8-35.8-79.8-79.8V251.8c0-44 35.8-79.8 79.8-79.8h634.2c44 0 79.8 35.8 79.8 79.8v523.3z" fill="#6B400D" p-id="2533"></path><path d="M684.1 469.8L486.1 343c-8.6-4.8-17.8-7-29.7-7-34 0-56 17.4-56 44.3v266.2c0 26.9 22 44.3 56 44.3 6.4 0 18.8-0.9 29.9-7.1l197.4-126.5c17.7-9 28.2-25.5 28.2-43.9 0-18.3-10.5-34.7-27.8-43.5z m-27.5 55.7L472 643.7c-3.2 1.5-4.9 1.5-8.1 1.5-8.1 0-16.2-6-16.2-15.1V396.7c0-9 8.1-15.1 16.2-15.1 3.2 0 6.5 0 8.1 1.5l184.6 118.2c6.5 4.5 8.1 10.5 8.1 12 0 3.2 0 9.2-8.1 12.2z" fill="#6B400D" p-id="2534"></path><path d="M656.6 501.4L472 383.2c-1.6-1.5-4.9-1.5-8.1-1.5-8.1 0-16.2 6-16.2 15.1v233.4c0 9 8.1 15.1 16.2 15.1 3.2 0 4.9 0 8.1-1.5l184.6-118.2c8.1-3 8.1-9 8.1-12 0-1.6-1.7-7.7-8.1-12.2z" fill="#FFD524" p-id="2535"></path></svg>