<?xml version="1.0" standalone="no"?><!DOCTYPE svg PUBLIC "-//W3C//DTD SVG 1.1//EN" "http://www.w3.org/Graphics/SVG/1.1/DTD/svg11.dtd"><svg t="1729431177437" class="icon" viewBox="0 0 3072 1024" version="1.1" xmlns="http://www.w3.org/2000/svg" p-id="16438" xmlns:xlink="http://www.w3.org/1999/xlink" width="600" height="200"><path d="M2816 1024H256c-143.36 0-256-117.76-256-256V256c0-143.36 117.76-256 256-256h2560c143.36 0 256 117.76 256 256v512c0 143.36-112.64 256-256 256z" fill="#020814" p-id="16439"></path><path d="M261.12 327.68l5.12-10.24c10.24-25.6 40.96-46.08 71.68-35.84 10.24 5.12 20.48 15.36 25.6 30.72 10.24 20.48 10.24 40.96-5.12 61.44-5.12 0-5.12 5.12-5.12 5.12 40.96 25.6 81.92 51.2 122.88 71.68 10.24 10.24 25.6 20.48 40.96 25.6 0 0 5.12 5.12 10.24 5.12s5.12-5.12 10.24-5.12l5.12-5.12c46.08-81.92 92.16-168.96 138.24-256-20.48-10.24-35.84-30.72-35.84-51.2 0-15.36 5.12-30.72 15.36-40.96 20.48-20.48 56.32-20.48 76.8 0l5.12 5.12c20.48 25.6 15.36 61.44-20.48 87.04 10.24 20.48 20.48 46.08 35.84 66.56 35.84 61.44 66.56 122.88 102.4 184.32 10.24 15.36 15.36 15.36 25.6 10.24 51.2-30.72 102.4-66.56 158.72-97.28l10.24-5.12c-10.24-10.24-15.36-20.48-20.48-35.84-5.12-30.72 20.48-56.32 51.2-61.44 25.6-5.12 46.08 15.36 56.32 40.96 0 10.24 5.12 10.24 5.12 15.36v20.48c-10.24 25.6-25.6 46.08-61.44 46.08 0 5.12-5.12 5.12-5.12 10.24l-97.28 307.2c-5.12 15.36-10.24 15.36-20.48 15.36H435.2c-15.36 0-20.48-5.12-20.48-15.36-25.6-81.92-51.2-168.96-71.68-256-10.24-20.48-15.36-46.08-20.48-66.56-20.48 0-40.96-10.24-51.2-25.6-5.12-15.36-10.24-15.36-10.24-20.48v-20.48z m440.32 455.68h245.76c20.48 0 40.96 15.36 40.96 40.96 0 20.48-15.36 40.96-35.84 40.96H450.56c-15.36 0-30.72-10.24-40.96-25.6-5.12-15.36 0-35.84 15.36-46.08 10.24-5.12 20.48-10.24 25.6-10.24h250.88z m0 0" fill="#FFF142" p-id="16440"></path><path d="M696.32 112.64c15.36 0 30.72 5.12 40.96 15.36l5.12 5.12c20.48 25.6 15.36 61.44-20.48 87.04 10.24 20.48 20.48 46.08 35.84 66.56 35.84 61.44 66.56 122.88 102.4 184.32 10.24 15.36 15.36 15.36 25.6 10.24 51.2-30.72 102.4-66.56 158.72-97.28l10.24-5.12c-10.24-10.24-15.36-20.48-20.48-35.84-10.24-35.84 15.36-61.44 40.96-66.56 25.6-5.12 46.08 15.36 56.32 40.96 0 5.12 5.12 5.12 5.12 10.24v20.48c-10.24 25.6-30.72 40.96-61.44 40.96v10.24L977.92 716.8c-5.12 15.36-10.24 15.36-20.48 15.36h-261.12V112.64z m0 670.72h245.76c20.48 0 40.96 15.36 40.96 40.96 0 20.48-15.36 40.96-35.84 40.96h-250.88" fill="#FFC41F" p-id="16441"></path><path d="M1315.84 153.6H1433.6l102.4 593.92L1843.2 153.6h117.76l-384 716.8h-133.12L1315.84 153.6z m727.04 0H2150.4l-128 716.8h-107.52l128-716.8z m250.88 0h296.96c168.96 0 245.76 71.68 220.16 220.16s-122.88 220.16-296.96 220.16h-184.32l-51.2 281.6h-107.52L2293.76 153.6z m92.16 92.16l-46.08 250.88h179.2c56.32 0 97.28-10.24 122.88-30.72 30.72-20.48 46.08-51.2 56.32-97.28 10.24-46.08 0-76.8-20.48-92.16-20.48-20.48-56.32-30.72-112.64-30.72h-179.2z m0 0" fill="#FFF142" p-id="16442"></path></svg>